<svg width="18" height="18" viewBox="0 0 18 18" fill="none" xmlns="http://www.w3.org/2000/svg">
<path d="M9 1.4939C7.64228 1.49415 6.31009 1.86295 5.14554 2.56097C3.98099 3.25899 3.02777 4.26004 2.38755 5.45733C1.74733 6.65463 1.44412 8.00326 1.51028 9.35937C1.57645 10.7155 2.00949 12.0282 2.76322 13.1575C3.51695 14.2868 4.56309 15.1903 5.79006 15.7716C7.01702 16.353 8.37878 16.5903 9.73008 16.4584C11.0814 16.3265 12.3715 15.8302 13.4629 15.0226C14.5543 14.2149 15.4059 13.1261 15.927 11.8724C16.1827 11.2574 15.57 10.6394 14.9535 10.8899C13.8969 11.3179 12.7237 11.3621 11.6379 11.0147C10.5521 10.6674 9.62232 9.95047 9.0103 8.98866C8.39829 8.02686 8.1427 6.88098 8.28798 5.75026C8.43326 4.61954 8.97022 3.5755 9.8055 2.79965L9.86325 2.73965C10.2765 2.26715 9.948 1.4999 9.29475 1.4999H9.09525L9.04425 1.4954L9 1.4939Z" fill="black" fill-opacity="0.25"/>
</svg>
