<svg width="18" height="18" viewBox="0 0 18 18" fill="none" xmlns="http://www.w3.org/2000/svg">
<path d="M14.925 9.49504C14.8048 9.35818 14.7384 9.18223 14.7384 9.00004C14.7384 8.81786 14.8048 8.64191 14.925 8.50504L15.885 7.42504C15.9908 7.30704 16.0565 7.15857 16.0726 7.00092C16.0888 6.84328 16.0546 6.68456 15.975 6.54754L14.475 3.95254C14.3962 3.81568 14.2762 3.7072 14.1321 3.64256C13.988 3.57792 13.8271 3.56041 13.6725 3.59254L12.2625 3.87754C12.0831 3.91461 11.8963 3.88474 11.7374 3.79354C11.5785 3.70235 11.4585 3.55616 11.4 3.38254L10.9425 2.01004C10.8922 1.86108 10.7963 1.73169 10.6685 1.64017C10.5406 1.54866 10.3872 1.49964 10.23 1.50004H7.23C7.06645 1.49151 6.9046 1.53674 6.76917 1.62883C6.63374 1.72092 6.53218 1.85481 6.48 2.01004L6.06 3.38254C6.0015 3.55616 5.88148 3.70235 5.72258 3.79354C5.56369 3.88474 5.37691 3.91461 5.1975 3.87754L3.75 3.59254C3.60341 3.57183 3.45397 3.59496 3.32051 3.65902C3.18704 3.72309 3.07552 3.82521 3 3.95254L1.5 6.54754C1.41837 6.68303 1.38167 6.84086 1.39514 6.99846C1.40861 7.15606 1.47156 7.30537 1.575 7.42504L2.5275 8.50504C2.64774 8.64191 2.71405 8.81786 2.71405 9.00004C2.71405 9.18223 2.64774 9.35818 2.5275 9.49504L1.575 10.575C1.47156 10.6947 1.40861 10.844 1.39514 11.0016C1.38167 11.1592 1.41837 11.3171 1.5 11.4525L3 14.0475C3.07882 14.1844 3.19884 14.2929 3.34294 14.3575C3.48704 14.4222 3.64787 14.4397 3.8025 14.4075L5.2125 14.1225C5.39191 14.0855 5.57869 14.1154 5.73758 14.2065C5.89648 14.2977 6.0165 14.4439 6.075 14.6175L6.5325 15.99C6.58468 16.1453 6.68624 16.2792 6.82167 16.3713C6.9571 16.4633 7.11895 16.5086 7.2825 16.5H10.2825C10.4397 16.5005 10.5931 16.4514 10.721 16.3599C10.8488 16.2684 10.9447 16.139 10.995 15.99L11.4525 14.6175C11.511 14.4439 11.631 14.2977 11.7899 14.2065C11.9488 14.1154 12.1356 14.0855 12.315 14.1225L13.725 14.4075C13.8796 14.4397 14.0405 14.4222 14.1846 14.3575C14.3287 14.2929 14.4487 14.1844 14.5275 14.0475L16.0275 11.4525C16.1071 11.3155 16.1413 11.1568 16.1251 10.9992C16.109 10.8415 16.0433 10.693 15.9375 10.575L14.925 9.49504ZM13.8075 10.5L14.4075 11.175L13.4475 12.84L12.5625 12.66C12.0223 12.5496 11.4604 12.6414 10.9834 12.9179C10.5065 13.1944 10.1476 13.6364 9.975 14.16L9.69 15H7.77L7.5 14.145C7.32739 13.6214 6.96853 13.1794 6.49155 12.9029C6.01457 12.6264 5.45266 12.5346 4.9125 12.645L4.0275 12.825L3.0525 11.1675L3.6525 10.4925C4.02146 10.08 4.22545 9.54599 4.22545 8.99254C4.22545 8.43909 4.02146 7.90506 3.6525 7.49254L3.0525 6.81754L4.0125 5.16754L4.8975 5.34754C5.43766 5.45796 5.99957 5.3662 6.47655 5.08969C6.95353 4.81318 7.31239 4.37116 7.485 3.84754L7.77 3.00004H9.69L9.975 3.85504C10.1476 4.37866 10.5065 4.82068 10.9834 5.09719C11.4604 5.3737 12.0223 5.46546 12.5625 5.35504L13.4475 5.17504L14.4075 6.84004L13.8075 7.51504C13.4427 7.92661 13.2412 8.45756 13.2412 9.00754C13.2412 9.55753 13.4427 10.0885 13.8075 10.5ZM8.73 6.00004C8.13665 6.00004 7.55663 6.17599 7.06329 6.50564C6.56994 6.83528 6.18542 7.30381 5.95836 7.85199C5.7313 8.40017 5.67189 9.00337 5.78764 9.58531C5.9034 10.1673 6.18912 10.7018 6.60868 11.1214C7.02823 11.5409 7.56278 11.8266 8.14473 11.9424C8.72667 12.0582 9.32987 11.9987 9.87805 11.7717C10.4262 11.5446 10.8948 11.1601 11.2244 10.6668C11.5541 10.1734 11.73 9.59339 11.73 9.00004C11.73 8.20439 11.4139 7.44133 10.8513 6.87872C10.2887 6.31611 9.52565 6.00004 8.73 6.00004ZM8.73 10.5C8.43333 10.5 8.14332 10.4121 7.89664 10.2472C7.64997 10.0824 7.45771 9.84816 7.34418 9.57407C7.23065 9.29998 7.20094 8.99838 7.25882 8.70741C7.3167 8.41644 7.45956 8.14916 7.66934 7.93938C7.87912 7.72961 8.14639 7.58674 8.43736 7.52887C8.72833 7.47099 9.02993 7.50069 9.30402 7.61422C9.57811 7.72776 9.81238 7.92001 9.9772 8.16669C10.142 8.41336 10.23 8.70337 10.23 9.00004C10.23 9.39787 10.072 9.7794 9.79066 10.0607C9.50935 10.342 9.12782 10.5 8.73 10.5Z" fill="#1F1F1F"/>
</svg>
