<svg width="19" height="18" viewBox="0 0 19 18" fill="none" xmlns="http://www.w3.org/2000/svg">
<path d="M13.8183 9.00001C13.8191 9.88367 13.5572 10.7476 13.0657 11.482C12.5742 12.2164 11.8755 12.788 11.0583 13.1243C10.241 13.4614 9.34222 13.5491 8.47521 13.3763C7.60819 13.2034 6.81174 12.7778 6.18626 12.153C5.56133 11.5281 5.13609 10.7317 4.96446 9.86481C4.79284 8.99789 4.88257 8.09953 5.22228 7.28369C5.56199 6.46784 6.13636 5.77128 6.87254 5.28236C7.60872 4.79344 8.47352 4.53419 9.35726 4.53751C10.5414 4.53785 11.6769 5.008 12.5148 5.84476C12.9287 6.25922 13.2568 6.75124 13.4803 7.29265C13.7039 7.83407 13.8185 8.41426 13.8175 9.00001M2.80226 9.78601H1.93751C1.72891 9.78601 1.52883 9.70324 1.38119 9.55588C1.23355 9.40852 1.15041 9.2086 1.15001 9.00001C1.14991 8.89663 1.17022 8.79426 1.20978 8.69875C1.24934 8.60325 1.30737 8.51649 1.38053 8.44347C1.4537 8.37044 1.54056 8.31258 1.63614 8.2732C1.73172 8.23383 1.83414 8.21371 1.93751 8.21401H2.80226C3.01086 8.21401 3.21093 8.29677 3.35858 8.44413C3.50622 8.59149 3.58936 8.79141 3.58976 9.00001C3.58986 9.10338 3.56955 9.20576 3.52999 9.30126C3.49043 9.39676 3.4324 9.48352 3.35924 9.55654C3.28607 9.62957 3.19921 9.68743 3.10363 9.72681C3.00805 9.76619 2.90563 9.7863 2.80226 9.78601ZM16.8625 9.78601H16.0053C15.7968 9.78581 15.5969 9.70296 15.4494 9.55562C15.3019 9.40828 15.2189 9.20847 15.2185 9.00001C15.2184 8.89663 15.2387 8.79426 15.2783 8.69875C15.3178 8.60325 15.3759 8.51649 15.449 8.44347C15.5222 8.37044 15.6091 8.31258 15.7046 8.2732C15.8002 8.23383 15.9026 8.21371 16.006 8.21401H16.8633C17.0717 8.2142 17.2716 8.29706 17.4191 8.44439C17.5666 8.59173 17.6496 8.79154 17.65 9.00001C17.6501 9.10338 17.6298 9.20576 17.5902 9.30126C17.5507 9.39676 17.4927 9.48352 17.4195 9.55654C17.3463 9.62957 17.2595 9.68743 17.1639 9.72681C17.0683 9.76619 16.9659 9.7863 16.8625 9.78601ZM9.38876 3.18601C9.18016 3.18601 8.98008 3.10324 8.83244 2.95588C8.6848 2.80852 8.60166 2.6086 8.60126 2.40001V1.53601C8.60116 1.43257 8.6215 1.33013 8.6611 1.23458C8.70071 1.13902 8.7588 1.05224 8.83205 0.979201C8.90529 0.906165 8.99225 0.84832 9.08791 0.808987C9.18358 0.769655 9.28607 0.749611 9.38951 0.750006C9.59798 0.750204 9.79786 0.833054 9.94534 0.980393C10.0928 1.12773 10.1759 1.32754 10.1763 1.53601V2.40001C10.1764 2.50338 10.156 2.60575 10.1165 2.70126C10.0769 2.79676 10.0189 2.88352 9.94574 2.95654C9.87257 3.02957 9.78571 3.08743 9.69013 3.12681C9.59455 3.16618 9.49213 3.1863 9.38876 3.18601ZM9.38876 17.25C9.18029 17.25 8.98033 17.1673 8.83271 17.0201C8.68509 16.873 8.60186 16.6732 8.60126 16.4648V15.6C8.60116 15.4966 8.62147 15.3943 8.66103 15.2988C8.70059 15.2032 8.75862 15.1165 8.83178 15.0435C8.90495 14.9704 8.99181 14.9126 9.08739 14.8732C9.18297 14.8338 9.28539 14.8137 9.38876 14.814C9.59723 14.8142 9.79711 14.8971 9.94459 15.0444C10.0921 15.1917 10.1751 15.3915 10.1755 15.6V16.464C10.1756 16.5674 10.1553 16.6698 10.1157 16.7653C10.0762 16.8608 10.0182 16.9475 9.94499 17.0205C9.87182 17.0936 9.78496 17.1514 9.68938 17.1908C9.5938 17.2302 9.49213 17.2503 9.38876 17.25ZM4.71476 5.11876C4.61068 5.11837 4.50772 5.09736 4.41181 5.05694C4.3159 5.01652 4.22896 4.95749 4.15601 4.88326L3.54176 4.27801C3.43096 4.16776 3.35545 4.02706 3.3248 3.87379C3.29416 3.72052 3.30977 3.5616 3.36966 3.41723C3.42955 3.27286 3.53101 3.14955 3.66114 3.06297C3.79127 2.97639 3.94421 2.93046 4.10051 2.93101C4.31051 2.93101 4.51151 3.01426 4.65926 3.16201L5.27351 3.77476C5.42016 3.92194 5.5025 4.12124 5.5025 4.32901C5.5025 4.53677 5.42016 4.73608 5.27351 4.88326C5.20056 4.95749 5.11362 5.01652 5.01771 5.05694C4.9218 5.09736 4.81884 5.11837 4.71476 5.11876ZM14.668 15.0345C14.4615 15.0337 14.2635 14.9519 14.1168 14.8065L13.5033 14.1938C13.3561 14.0701 13.2593 13.8968 13.2314 13.7067C13.2034 13.5165 13.2462 13.3227 13.3516 13.1619C13.4569 13.0012 13.6176 12.8847 13.8032 12.8345C13.9887 12.7843 14.1862 12.8038 14.3583 12.8895C14.4563 12.9375 14.5413 13.003 14.6133 13.086L15.2268 13.6988C15.3732 13.8459 15.4554 14.045 15.4554 14.2526C15.4554 14.4602 15.3732 14.6594 15.2268 14.8065C15.1532 14.8794 15.066 14.937 14.9701 14.9762C14.8742 15.0153 14.7716 15.0351 14.668 15.0345ZM14.062 5.11876C13.9454 5.1192 13.8301 5.09373 13.7245 5.04418C13.6189 4.99464 13.5256 4.92225 13.4514 4.83225C13.3772 4.74226 13.3239 4.63691 13.2954 4.5238C13.2669 4.4107 13.2638 4.29268 13.2865 4.17826C13.3165 4.02526 13.393 3.88501 13.504 3.77476L14.1175 3.16201C14.2672 3.02328 14.4648 2.94806 14.6688 2.9522C14.8729 2.95634 15.0673 3.03951 15.2112 3.1842C15.3551 3.32888 15.4372 3.52377 15.4403 3.72781C15.4433 3.93185 15.367 4.1291 15.2275 4.27801L14.6125 4.88326C14.4672 5.03118 14.2694 5.1158 14.062 5.11876ZM4.10051 15.0345C3.99696 15.0351 3.89431 15.0153 3.79843 14.9762C3.70255 14.937 3.61533 14.8794 3.54176 14.8065C3.39516 14.6595 3.31283 14.4603 3.31283 14.2526C3.31283 14.045 3.39516 13.8458 3.54176 13.6988L4.15601 13.086C4.2292 13.0123 4.31626 12.9538 4.41215 12.9139C4.50805 12.874 4.61089 12.8534 4.71476 12.8534C4.81863 12.8534 4.92147 12.874 5.01737 12.9139C5.11326 12.9538 5.20031 13.0123 5.27351 13.086C5.41993 13.2332 5.50213 13.4323 5.50213 13.6399C5.50213 13.8475 5.41993 14.0466 5.27351 14.1938L4.65926 14.8065C4.58569 14.8794 4.49847 14.937 4.40259 14.9762C4.30671 15.0153 4.20406 15.0351 4.10051 15.0345Z" fill="#1F1F1F"/>
</svg>
